<svg width="1172" height="465" viewBox="0 0 1172 465" fill="none" xmlns="http://www.w3.org/2000/svg">
<path d="M62.5357 155.021H67.7214C73.1428 184.486 94.3571 204.757 119.343 204.757C140.086 204.757 153.521 190.85 153.521 169.4C153.521 113.536 61.5929 113.064 61.5929 51.7787C61.5929 22.0787 83.2785 0.628662 113.214 0.628662C133.25 0.628662 145.743 10.0572 154.229 10.0572C158.707 10.0572 161.064 7.22866 162.007 0.628662H166.957L170.257 59.0858L165.071 59.793C157.293 27.0287 140.321 9.11438 116.75 9.11438C96.7142 9.11438 82.5714 22.3144 82.5714 41.1715C82.5714 89.7287 177.328 95.1501 177.328 158.793C177.328 190.379 153.993 213.007 121.229 213.007C98.3642 213.007 87.7571 202.164 78.3285 202.164C73.1428 202.164 69.8428 205.464 67.7214 213.007H62.5357V155.021ZM244.275 78.4144C219.761 78.4144 207.504 102.693 207.504 128.621C207.504 158.557 223.532 191.086 254.175 191.086C271.382 191.086 285.289 180.95 292.125 163.036L297.075 163.979C291.182 194.15 270.911 213.007 243.804 213.007C207.032 213.007 188.175 178.121 188.175 142.764C188.175 107.407 207.504 71.5787 246.632 71.5787C268.789 71.5787 287.646 82.893 290.475 97.743C292.832 109.764 285.761 114.714 278.925 114.714C275.154 114.714 271.382 113.3 269.025 110.707C260.539 101.279 268.082 78.4144 244.275 78.4144ZM414.731 118.721V176.943C414.731 189.671 413.317 200.75 430.996 203.814V209H375.131V203.814C392.81 200.75 391.396 189.671 391.396 176.943V117.779C391.396 101.75 388.331 87.3715 369.71 87.3715C356.746 87.3715 345.903 94.443 337.653 104.107V176.943C337.653 189.671 336.239 200.75 353.917 203.814V209H298.053V203.814C315.731 200.75 314.317 189.671 314.317 176.943V40.7001C314.317 24.6715 309.839 17.6001 296.874 21.843L294.989 16.4215L337.653 0.628662V96.093C351.324 79.8287 367.117 71.5787 383.381 71.5787C410.253 71.5787 414.731 96.5644 414.731 118.721ZM490.666 213.007C451.538 213.007 433.624 177.65 433.624 140.879C433.624 103.871 451.774 71.5787 490.666 71.5787C529.559 71.5787 547.709 103.871 547.709 140.879C547.709 177.65 529.795 213.007 490.666 213.007ZM490.666 206.171C516.359 206.171 521.545 160.914 521.545 141.114C521.545 120.843 516.595 78.4144 490.666 78.4144C464.738 78.4144 459.788 120.843 459.788 141.114C459.788 160.914 464.974 206.171 490.666 206.171ZM615.693 213.007C576.564 213.007 558.65 177.65 558.65 140.879C558.65 103.871 576.8 71.5787 615.693 71.5787C654.585 71.5787 672.735 103.871 672.735 140.879C672.735 177.65 654.821 213.007 615.693 213.007ZM615.693 206.171C641.385 206.171 646.571 160.914 646.571 141.114C646.571 120.843 641.621 78.4144 615.693 78.4144C589.764 78.4144 584.814 120.843 584.814 141.114C584.814 160.914 590 206.171 615.693 206.171ZM673.822 209V203.814C691.5 200.75 690.086 189.671 690.086 176.943V40.7001C690.086 24.6715 685.608 17.6001 672.643 21.843L670.758 16.4215L713.422 0.628662V176.943C713.422 189.671 712.008 200.75 729.686 203.814V209H673.822ZM821.307 86.6644V117.779H814.943C811.172 93.2644 799.15 78.6501 779.822 78.6501C765.207 78.6501 755.072 86.9001 755.072 98.6858C755.072 130.743 829.322 126.971 829.322 172.7C829.322 196.743 809.05 213.007 779.822 213.007C758.843 213.007 736.214 204.521 736.214 195.564V162.329H742.579C746.822 190.379 769.45 205.7 786.657 205.7C799.15 205.7 808.107 197.45 808.107 184.957C808.107 149.6 735.272 152.664 735.272 108.114C735.272 85.4858 754.129 71.5787 785.007 71.5787C805.514 71.5787 820.129 77.7072 821.307 86.6644ZM936.479 213.007C897.351 213.007 879.437 177.65 879.437 140.879C879.437 103.871 897.587 71.5787 936.479 71.5787C975.372 71.5787 993.522 103.871 993.522 140.879C993.522 177.65 975.608 213.007 936.479 213.007ZM936.479 206.171C962.172 206.171 967.358 160.914 967.358 141.114C967.358 120.843 962.408 78.4144 936.479 78.4144C910.551 78.4144 905.601 120.843 905.601 141.114C905.601 160.914 910.787 206.171 936.479 206.171ZM1015.48 176.943V81.2429H996.148V74.6429H1015.48C1015.48 60.5001 1016.42 51.0715 1018.54 43.0572C1024.91 17.3644 1043.53 0.628662 1064.74 0.628662C1078.65 0.628662 1093.27 7.93581 1097.51 17.1287C1105.29 34.1001 1088.08 40.2287 1079.83 34.8072C1070.4 28.443 1070.64 9.82153 1055.08 9.82153C1043.76 9.82153 1038.81 19.4858 1038.81 40.4644V74.6429H1063.33V81.2429H1038.81V176.943C1038.81 189.671 1037.4 200.75 1055.08 203.814V209H999.213V203.814C1016.89 200.75 1015.48 189.671 1015.48 176.943ZM98.6 228.643C75.9714 228.643 66.7786 237.6 64.1857 262.114H59L60.8857 220.629H205.614L207.5 262.114H202.314C199.721 237.6 190.528 228.643 167.9 228.643H145.743V396.943C145.743 409.671 144.329 420.75 162.007 423.814V429H105.2V423.814C122.879 420.75 121.464 409.671 121.464 396.943V228.643H98.6ZM241.995 433.007C202.867 433.007 184.952 397.65 184.952 360.879C184.952 323.871 203.102 291.579 241.995 291.579C280.888 291.579 299.038 323.871 299.038 360.879C299.038 397.65 281.124 433.007 241.995 433.007ZM241.995 426.171C267.688 426.171 272.874 380.914 272.874 361.114C272.874 340.843 267.924 298.414 241.995 298.414C216.067 298.414 211.117 340.843 211.117 361.114C211.117 380.914 216.302 426.171 241.995 426.171ZM416.249 396.943C416.249 409.671 414.834 420.75 432.513 423.814V429H376.649V423.814C394.327 420.75 392.913 409.671 392.913 396.943V337.071C392.913 316.329 386.313 306.664 371.934 306.664C361.799 306.664 352.606 312.321 343.177 323.636V396.943C343.177 409.671 341.763 420.75 359.442 423.814V429H303.577V423.814C321.256 420.75 319.842 409.671 319.842 396.943V331.65C319.842 315.621 315.363 308.55 302.399 312.793L300.513 307.371L343.177 291.579V316.093C357.556 299.357 370.52 291.579 384.899 291.579C399.749 291.579 409.413 299.829 413.656 316.093C427.799 299.829 442.885 291.579 457.97 291.579C478.713 291.579 489.32 307.607 489.32 338.721V396.943C489.32 409.671 487.906 420.75 505.585 423.814V429H449.72V423.814C467.399 420.75 465.984 409.671 465.984 396.943V337.071C465.984 316.093 459.384 306.664 445.006 306.664C434.634 306.664 424.263 312.086 415.07 322.221C415.777 327.171 416.249 332.593 416.249 338.721V396.943ZM564.787 433.007C525.659 433.007 507.745 397.65 507.745 360.879C507.745 323.871 525.895 291.579 564.787 291.579C603.68 291.579 621.83 323.871 621.83 360.879C621.83 397.65 603.916 433.007 564.787 433.007ZM564.787 426.171C590.48 426.171 595.666 380.914 595.666 361.114C595.666 340.843 590.716 298.414 564.787 298.414C538.859 298.414 533.909 340.843 533.909 361.114C533.909 380.914 539.095 426.171 564.787 426.171ZM727.491 309.257C727.491 317.036 721.598 322.693 713.348 322.693C699.441 322.693 702.977 307.607 690.955 307.607C683.412 307.607 673.984 313.5 665.97 323.4V396.943C665.97 409.671 664.555 420.75 682.234 423.814V429H626.37V423.814C644.048 420.75 642.634 409.671 642.634 396.943V331.65C642.634 315.621 638.155 308.55 625.191 312.793L623.305 307.371L665.97 291.579V315.15C678.462 300.536 692.841 291.579 705.098 291.579C716.648 291.579 727.491 299.357 727.491 309.257ZM836.634 309.257C836.634 317.036 830.741 322.693 822.491 322.693C808.584 322.693 812.12 307.607 800.098 307.607C792.556 307.607 783.127 313.5 775.113 323.4V396.943C775.113 409.671 773.698 420.75 791.377 423.814V429H735.513V423.814C753.191 420.75 751.777 409.671 751.777 396.943V331.65C751.777 315.621 747.298 308.55 734.334 312.793L732.448 307.371L775.113 291.579V315.15C787.606 300.536 801.984 291.579 814.241 291.579C825.791 291.579 836.634 299.357 836.634 309.257ZM922.454 294.643H979.026V299.829C958.99 301.243 967.476 318.214 971.954 330.236L996.233 396L1015.8 338.721C1010.85 325.286 1004.25 301.243 988.454 299.829V294.643H1044.79V299.829C1024.28 301.479 1033.48 318.214 1037.72 330.236L1061.06 395.057L1085.81 319.629C1090.52 305.014 1088.4 300.3 1075.44 299.829V294.643H1113.86V299.829C1102.07 301.243 1095.24 313.971 1091.94 323.871L1055.4 433.007H1050.21L1019.57 349.093L990.576 433.007H985.39L949.562 337.543C944.612 324.107 938.247 301.243 922.454 299.829V294.643Z" fill="black"/>
<path d="M460.652 39L555.16 90.2582L580.057 159.279L507.398 245.048L430.557 203.5L429.057 203L427.557 202.5L426.057 202L423.557 201L421.057 200L419.057 198.5L417.557 196L416.557 194L416.057 192L415.557 190.5L415.057 169.5V108L414.557 105L414.057 102L413.057 98L412.057 94L460.652 39Z" fill="#FFD238"/>
<path d="M171.945 303.101L209.509 262.741L290.219 245L346.057 306.332L321.184 384.202L284.636 425.259L202.91 443L146.057 384.202L171.945 303.101Z" fill="#EE4875"/>
<path fill-rule="evenodd" clip-rule="evenodd" d="M829.83 419.615C870.158 460.096 930.644 456.671 951.863 429.604C977.003 397.534 968.675 333.369 924.628 291.863C885.575 255.062 839.781 248.753 806.785 275.04C775.001 309.025 787.93 371.774 829.83 419.615ZM914.636 394.135C924.333 387.118 918.7 362.643 902.055 339.468C885.411 316.293 864.057 303.194 854.361 310.211C844.664 317.228 850.297 341.704 866.941 364.879C883.586 388.054 904.94 401.152 914.636 394.135Z" fill="#0EC0E2"/>
<path d="M835.243 309.257C835.243 317.036 829.35 322.693 821.1 322.693C807.193 322.693 810.728 307.607 798.707 307.607C791.164 307.607 781.736 313.5 773.721 323.4V396.943C773.721 409.671 772.307 420.75 789.986 423.814V429H734.121V423.814C751.8 420.75 750.386 409.671 750.386 396.943V331.65C750.386 315.621 745.907 308.55 732.943 312.793L731.057 307.371L773.721 291.579V315.15C786.214 300.536 800.593 291.579 812.85 291.579C824.4 291.579 835.243 299.357 835.243 309.257Z" fill="black"/>
</svg>
